<mxfile host="app.diagrams.net" modified="2021-04-08T16:26:54.129Z" agent="5.0 (Windows NT 10.0; Win64; x64) AppleWebKit/537.36 (KHTML, like Gecko) Chrome/89.0.4389.114 Safari/537.36" etag="voZpjuNSgI3e7c-u25Zn" version="14.5.8" type="github">
  <diagram id="kgpKYQtTHZ0yAKxKKP6v" name="Fluxograma">
    <mxGraphModel dx="1422" dy="762" grid="1" gridSize="10" guides="1" tooltips="1" connect="1" arrows="1" fold="1" page="1" pageScale="1" pageWidth="850" pageHeight="1100" math="0" shadow="0">
      <root>
        <mxCell id="0" />
        <mxCell id="1" parent="0" />
        <mxCell id="87hjY8qyOyO2kFxHjig5-1" value="" style="ellipse;html=1;shape=startState;fillColor=#000000;strokeColor=#ff0000;" vertex="1" parent="1">
          <mxGeometry x="560" y="130" width="30" height="30" as="geometry" />
        </mxCell>
        <mxCell id="87hjY8qyOyO2kFxHjig5-2" value="" style="edgeStyle=orthogonalEdgeStyle;html=1;verticalAlign=bottom;endArrow=open;endSize=8;strokeColor=#ff0000;entryX=0.5;entryY=0;entryDx=0;entryDy=0;" edge="1" source="87hjY8qyOyO2kFxHjig5-1" parent="1" target="87hjY8qyOyO2kFxHjig5-8">
          <mxGeometry relative="1" as="geometry">
            <mxPoint x="575" y="220" as="targetPoint" />
          </mxGeometry>
        </mxCell>
        <mxCell id="87hjY8qyOyO2kFxHjig5-7" value="inicio" style="text;strokeColor=none;fillColor=none;spacingLeft=4;spacingRight=4;overflow=hidden;rotatable=0;points=[[0,0.5],[1,0.5]];portConstraint=eastwest;fontSize=12;" vertex="1" parent="1">
          <mxGeometry x="555" y="90" width="40" height="30" as="geometry" />
        </mxCell>
        <mxCell id="87hjY8qyOyO2kFxHjig5-31" value="" style="edgeStyle=orthogonalEdgeStyle;rounded=0;orthogonalLoop=1;jettySize=auto;html=1;" edge="1" parent="1" source="87hjY8qyOyO2kFxHjig5-8" target="87hjY8qyOyO2kFxHjig5-30">
          <mxGeometry relative="1" as="geometry" />
        </mxCell>
        <mxCell id="87hjY8qyOyO2kFxHjig5-8" value="&lt;font style=&quot;vertical-align: inherit&quot;&gt;&lt;font style=&quot;vertical-align: inherit&quot;&gt;&lt;font style=&quot;vertical-align: inherit&quot;&gt;&lt;font style=&quot;vertical-align: inherit&quot;&gt;&lt;font style=&quot;vertical-align: inherit&quot;&gt;&lt;font style=&quot;vertical-align: inherit&quot;&gt;Reservar Mesa Pelo Site &lt;br&gt;e realizar pedido&lt;/font&gt;&lt;/font&gt;&lt;/font&gt;&lt;/font&gt;&lt;/font&gt;&lt;/font&gt;" style="html=1;" vertex="1" parent="1">
          <mxGeometry x="500" y="220" width="150" height="50" as="geometry" />
        </mxCell>
        <mxCell id="87hjY8qyOyO2kFxHjig5-9" value="" style="ellipse;html=1;shape=startState;fillColor=#000000;strokeColor=#ff0000;" vertex="1" parent="1">
          <mxGeometry x="310" y="130" width="30" height="30" as="geometry" />
        </mxCell>
        <mxCell id="87hjY8qyOyO2kFxHjig5-10" value="" style="edgeStyle=orthogonalEdgeStyle;html=1;verticalAlign=bottom;endArrow=open;endSize=8;strokeColor=#ff0000;entryX=0.5;entryY=0;entryDx=0;entryDy=0;" edge="1" parent="1" source="87hjY8qyOyO2kFxHjig5-9" target="87hjY8qyOyO2kFxHjig5-12">
          <mxGeometry relative="1" as="geometry">
            <mxPoint x="325" y="220" as="targetPoint" />
          </mxGeometry>
        </mxCell>
        <mxCell id="87hjY8qyOyO2kFxHjig5-11" value="inicio" style="text;strokeColor=none;fillColor=none;spacingLeft=4;spacingRight=4;overflow=hidden;rotatable=0;points=[[0,0.5],[1,0.5]];portConstraint=eastwest;fontSize=12;" vertex="1" parent="1">
          <mxGeometry x="305" y="90" width="40" height="30" as="geometry" />
        </mxCell>
        <mxCell id="87hjY8qyOyO2kFxHjig5-16" value="" style="edgeStyle=orthogonalEdgeStyle;rounded=0;orthogonalLoop=1;jettySize=auto;html=1;" edge="1" parent="1" source="87hjY8qyOyO2kFxHjig5-12" target="87hjY8qyOyO2kFxHjig5-15">
          <mxGeometry relative="1" as="geometry" />
        </mxCell>
        <mxCell id="87hjY8qyOyO2kFxHjig5-12" value="&lt;font style=&quot;vertical-align: inherit&quot;&gt;&lt;font style=&quot;vertical-align: inherit&quot;&gt;&lt;font style=&quot;vertical-align: inherit&quot;&gt;&lt;font style=&quot;vertical-align: inherit&quot;&gt;&lt;font style=&quot;vertical-align: inherit&quot;&gt;&lt;font style=&quot;vertical-align: inherit&quot;&gt;Sentar-se Na Mesa&lt;/font&gt;&lt;/font&gt;&lt;/font&gt;&lt;/font&gt;&lt;/font&gt;&lt;/font&gt;" style="html=1;" vertex="1" parent="1">
          <mxGeometry x="255" y="220" width="140" height="50" as="geometry" />
        </mxCell>
        <mxCell id="87hjY8qyOyO2kFxHjig5-21" value="" style="edgeStyle=orthogonalEdgeStyle;rounded=0;orthogonalLoop=1;jettySize=auto;html=1;" edge="1" parent="1" source="87hjY8qyOyO2kFxHjig5-15" target="87hjY8qyOyO2kFxHjig5-20">
          <mxGeometry relative="1" as="geometry" />
        </mxCell>
        <mxCell id="87hjY8qyOyO2kFxHjig5-15" value="&lt;font style=&quot;vertical-align: inherit&quot;&gt;&lt;font style=&quot;vertical-align: inherit&quot;&gt;&lt;font style=&quot;vertical-align: inherit&quot;&gt;&lt;font style=&quot;vertical-align: inherit&quot;&gt;&lt;font style=&quot;vertical-align: inherit&quot;&gt;&lt;font style=&quot;vertical-align: inherit&quot;&gt;&lt;font style=&quot;vertical-align: inherit&quot;&gt;&lt;font style=&quot;vertical-align: inherit&quot;&gt;Chamar o Garçon&lt;/font&gt;&lt;/font&gt;&lt;/font&gt;&lt;/font&gt;&lt;/font&gt;&lt;/font&gt;&lt;/font&gt;&lt;/font&gt;" style="html=1;" vertex="1" parent="1">
          <mxGeometry x="252.5" y="330" width="145" height="50" as="geometry" />
        </mxCell>
        <mxCell id="87hjY8qyOyO2kFxHjig5-38" style="edgeStyle=orthogonalEdgeStyle;rounded=0;orthogonalLoop=1;jettySize=auto;html=1;exitX=0.5;exitY=1;exitDx=0;exitDy=0;" edge="1" parent="1" source="87hjY8qyOyO2kFxHjig5-20" target="87hjY8qyOyO2kFxHjig5-36">
          <mxGeometry relative="1" as="geometry">
            <Array as="points">
              <mxPoint x="325" y="560" />
              <mxPoint x="420" y="560" />
            </Array>
          </mxGeometry>
        </mxCell>
        <mxCell id="87hjY8qyOyO2kFxHjig5-20" value="&lt;font style=&quot;vertical-align: inherit&quot;&gt;&lt;font style=&quot;vertical-align: inherit&quot;&gt;Montar comanda com&amp;nbsp; &lt;br&gt;o cliente&lt;/font&gt;&lt;/font&gt;" style="html=1;" vertex="1" parent="1">
          <mxGeometry x="250" y="440" width="150" height="50" as="geometry" />
        </mxCell>
        <mxCell id="87hjY8qyOyO2kFxHjig5-25" value="Fluxograma - Service" style="text;align=center;fontStyle=1;verticalAlign=middle;spacingLeft=3;spacingRight=3;strokeColor=none;rotatable=0;points=[[0,0.5],[1,0.5]];portConstraint=eastwest;" vertex="1" parent="1">
          <mxGeometry x="370" y="30" width="140" height="26" as="geometry" />
        </mxCell>
        <mxCell id="87hjY8qyOyO2kFxHjig5-33" value="" style="edgeStyle=orthogonalEdgeStyle;rounded=0;orthogonalLoop=1;jettySize=auto;html=1;" edge="1" parent="1" source="87hjY8qyOyO2kFxHjig5-30" target="87hjY8qyOyO2kFxHjig5-32">
          <mxGeometry relative="1" as="geometry" />
        </mxCell>
        <mxCell id="87hjY8qyOyO2kFxHjig5-30" value="&lt;font style=&quot;vertical-align: inherit&quot;&gt;&lt;font style=&quot;vertical-align: inherit&quot;&gt;Sentar-se Na Mesa&lt;br&gt;&amp;nbsp;Reservada&lt;/font&gt;&lt;/font&gt;" style="html=1;" vertex="1" parent="1">
          <mxGeometry x="500" y="330" width="150" height="50" as="geometry" />
        </mxCell>
        <mxCell id="87hjY8qyOyO2kFxHjig5-35" value="" style="edgeStyle=orthogonalEdgeStyle;rounded=0;orthogonalLoop=1;jettySize=auto;html=1;" edge="1" parent="1" source="87hjY8qyOyO2kFxHjig5-32" target="87hjY8qyOyO2kFxHjig5-34">
          <mxGeometry relative="1" as="geometry" />
        </mxCell>
        <mxCell id="87hjY8qyOyO2kFxHjig5-32" value="&lt;font style=&quot;vertical-align: inherit&quot;&gt;&lt;font style=&quot;vertical-align: inherit&quot;&gt;&lt;font style=&quot;vertical-align: inherit&quot;&gt;&lt;font style=&quot;vertical-align: inherit&quot;&gt;&lt;font style=&quot;vertical-align: inherit&quot;&gt;&lt;font style=&quot;vertical-align: inherit&quot;&gt;Chamar o garçom&lt;/font&gt;&lt;/font&gt;&lt;/font&gt;&lt;/font&gt;&lt;/font&gt;&lt;/font&gt;" style="html=1;" vertex="1" parent="1">
          <mxGeometry x="500" y="440" width="150" height="50" as="geometry" />
        </mxCell>
        <mxCell id="87hjY8qyOyO2kFxHjig5-37" value="" style="edgeStyle=orthogonalEdgeStyle;rounded=0;orthogonalLoop=1;jettySize=auto;html=1;" edge="1" parent="1" source="87hjY8qyOyO2kFxHjig5-34" target="87hjY8qyOyO2kFxHjig5-36">
          <mxGeometry relative="1" as="geometry" />
        </mxCell>
        <mxCell id="87hjY8qyOyO2kFxHjig5-34" value="&lt;font style=&quot;vertical-align: inherit&quot;&gt;&lt;font style=&quot;vertical-align: inherit&quot;&gt;&lt;font style=&quot;vertical-align: inherit&quot;&gt;&lt;font style=&quot;vertical-align: inherit&quot;&gt;&lt;font style=&quot;vertical-align: inherit&quot;&gt;&lt;font style=&quot;vertical-align: inherit&quot;&gt;&lt;font style=&quot;vertical-align: inherit&quot;&gt;&lt;font style=&quot;vertical-align: inherit&quot;&gt;&lt;font style=&quot;vertical-align: inherit&quot;&gt;&lt;font style=&quot;vertical-align: inherit&quot;&gt;Revisar comanda&lt;br&gt;com o cliente&lt;/font&gt;&lt;/font&gt;&lt;/font&gt;&lt;/font&gt;&lt;/font&gt;&lt;/font&gt;&lt;/font&gt;&lt;/font&gt;&lt;/font&gt;&lt;/font&gt;" style="html=1;" vertex="1" parent="1">
          <mxGeometry x="500" y="540" width="150" height="50" as="geometry" />
        </mxCell>
        <mxCell id="87hjY8qyOyO2kFxHjig5-40" value="" style="edgeStyle=orthogonalEdgeStyle;rounded=0;orthogonalLoop=1;jettySize=auto;html=1;" edge="1" parent="1" source="87hjY8qyOyO2kFxHjig5-36" target="87hjY8qyOyO2kFxHjig5-39">
          <mxGeometry relative="1" as="geometry" />
        </mxCell>
        <mxCell id="87hjY8qyOyO2kFxHjig5-36" value="&lt;font style=&quot;vertical-align: inherit&quot;&gt;&lt;font style=&quot;vertical-align: inherit&quot;&gt;&lt;font style=&quot;vertical-align: inherit&quot;&gt;&lt;font style=&quot;vertical-align: inherit&quot;&gt;&lt;font style=&quot;vertical-align: inherit&quot;&gt;&lt;font style=&quot;vertical-align: inherit&quot;&gt;&lt;font style=&quot;vertical-align: inherit&quot;&gt;&lt;font style=&quot;vertical-align: inherit&quot;&gt;&lt;font style=&quot;vertical-align: inherit&quot;&gt;&lt;font style=&quot;vertical-align: inherit&quot;&gt;Enviar pedido para cozinha&lt;/font&gt;&lt;/font&gt;&lt;/font&gt;&lt;/font&gt;&lt;/font&gt;&lt;/font&gt;&lt;/font&gt;&lt;/font&gt;&lt;/font&gt;&lt;/font&gt;" style="html=1;" vertex="1" parent="1">
          <mxGeometry x="345" y="630" width="150" height="50" as="geometry" />
        </mxCell>
        <mxCell id="87hjY8qyOyO2kFxHjig5-45" value="" style="edgeStyle=orthogonalEdgeStyle;rounded=0;orthogonalLoop=1;jettySize=auto;html=1;" edge="1" parent="1" source="87hjY8qyOyO2kFxHjig5-39" target="87hjY8qyOyO2kFxHjig5-44">
          <mxGeometry relative="1" as="geometry" />
        </mxCell>
        <mxCell id="87hjY8qyOyO2kFxHjig5-39" value="&lt;font style=&quot;vertical-align: inherit&quot;&gt;&lt;font style=&quot;vertical-align: inherit&quot;&gt;&lt;font style=&quot;vertical-align: inherit&quot;&gt;&lt;font style=&quot;vertical-align: inherit&quot;&gt;&lt;font style=&quot;vertical-align: inherit&quot;&gt;&lt;font style=&quot;vertical-align: inherit&quot;&gt;&lt;font style=&quot;vertical-align: inherit&quot;&gt;&lt;font style=&quot;vertical-align: inherit&quot;&gt;&lt;font style=&quot;vertical-align: inherit&quot;&gt;&lt;font style=&quot;vertical-align: inherit&quot;&gt;Receber pedido do Garçon&lt;/font&gt;&lt;/font&gt;&lt;/font&gt;&lt;/font&gt;&lt;/font&gt;&lt;/font&gt;&lt;/font&gt;&lt;/font&gt;&lt;/font&gt;&lt;/font&gt;" style="html=1;" vertex="1" parent="1">
          <mxGeometry x="345" y="740" width="150" height="50" as="geometry" />
        </mxCell>
        <mxCell id="87hjY8qyOyO2kFxHjig5-47" style="edgeStyle=orthogonalEdgeStyle;rounded=0;orthogonalLoop=1;jettySize=auto;html=1;exitX=0.5;exitY=1;exitDx=0;exitDy=0;" edge="1" parent="1" source="87hjY8qyOyO2kFxHjig5-44" target="87hjY8qyOyO2kFxHjig5-46">
          <mxGeometry relative="1" as="geometry" />
        </mxCell>
        <mxCell id="87hjY8qyOyO2kFxHjig5-44" value="Cozinhar" style="html=1;" vertex="1" parent="1">
          <mxGeometry x="345" y="870" width="150" height="50" as="geometry" />
        </mxCell>
        <mxCell id="87hjY8qyOyO2kFxHjig5-50" style="edgeStyle=orthogonalEdgeStyle;rounded=0;orthogonalLoop=1;jettySize=auto;html=1;exitX=0;exitY=0.5;exitDx=0;exitDy=0;entryX=0.25;entryY=1;entryDx=0;entryDy=0;" edge="1" parent="1" source="87hjY8qyOyO2kFxHjig5-46" target="87hjY8qyOyO2kFxHjig5-20">
          <mxGeometry relative="1" as="geometry" />
        </mxCell>
        <mxCell id="87hjY8qyOyO2kFxHjig5-58" value="nao" style="edgeLabel;html=1;align=center;verticalAlign=middle;resizable=0;points=[];" vertex="1" connectable="0" parent="87hjY8qyOyO2kFxHjig5-50">
          <mxGeometry x="-0.7912" y="-1" relative="1" as="geometry">
            <mxPoint as="offset" />
          </mxGeometry>
        </mxCell>
        <mxCell id="87hjY8qyOyO2kFxHjig5-52" value="" style="edgeStyle=orthogonalEdgeStyle;rounded=0;orthogonalLoop=1;jettySize=auto;html=1;" edge="1" parent="1" source="87hjY8qyOyO2kFxHjig5-46" target="87hjY8qyOyO2kFxHjig5-51">
          <mxGeometry relative="1" as="geometry" />
        </mxCell>
        <mxCell id="87hjY8qyOyO2kFxHjig5-59" value="sim" style="edgeLabel;html=1;align=center;verticalAlign=middle;resizable=0;points=[];" vertex="1" connectable="0" parent="87hjY8qyOyO2kFxHjig5-52">
          <mxGeometry x="-0.25" relative="1" as="geometry">
            <mxPoint as="offset" />
          </mxGeometry>
        </mxCell>
        <mxCell id="87hjY8qyOyO2kFxHjig5-46" value="tudo certo?" style="rhombus;whiteSpace=wrap;html=1;" vertex="1" parent="1">
          <mxGeometry x="380" y="980" width="80" height="80" as="geometry" />
        </mxCell>
        <mxCell id="87hjY8qyOyO2kFxHjig5-54" value="" style="edgeStyle=orthogonalEdgeStyle;rounded=0;orthogonalLoop=1;jettySize=auto;html=1;" edge="1" parent="1" source="87hjY8qyOyO2kFxHjig5-51" target="87hjY8qyOyO2kFxHjig5-53">
          <mxGeometry relative="1" as="geometry" />
        </mxCell>
        <mxCell id="87hjY8qyOyO2kFxHjig5-51" value="Notificar Garçom" style="whiteSpace=wrap;html=1;" vertex="1" parent="1">
          <mxGeometry x="360" y="1140" width="120" height="60" as="geometry" />
        </mxCell>
        <mxCell id="87hjY8qyOyO2kFxHjig5-57" value="" style="edgeStyle=orthogonalEdgeStyle;rounded=0;orthogonalLoop=1;jettySize=auto;html=1;" edge="1" parent="1" source="87hjY8qyOyO2kFxHjig5-53" target="87hjY8qyOyO2kFxHjig5-56">
          <mxGeometry relative="1" as="geometry" />
        </mxCell>
        <mxCell id="87hjY8qyOyO2kFxHjig5-53" value="Entregar prato da comanda para o cliente" style="whiteSpace=wrap;html=1;" vertex="1" parent="1">
          <mxGeometry x="360" y="1280" width="120" height="60" as="geometry" />
        </mxCell>
        <mxCell id="87hjY8qyOyO2kFxHjig5-61" value="" style="edgeStyle=orthogonalEdgeStyle;rounded=0;orthogonalLoop=1;jettySize=auto;html=1;" edge="1" parent="1" source="87hjY8qyOyO2kFxHjig5-56" target="87hjY8qyOyO2kFxHjig5-60">
          <mxGeometry relative="1" as="geometry" />
        </mxCell>
        <mxCell id="87hjY8qyOyO2kFxHjig5-62" value="sim" style="edgeLabel;html=1;align=center;verticalAlign=middle;resizable=0;points=[];" vertex="1" connectable="0" parent="87hjY8qyOyO2kFxHjig5-61">
          <mxGeometry x="-0.2778" y="-1" relative="1" as="geometry">
            <mxPoint as="offset" />
          </mxGeometry>
        </mxCell>
        <mxCell id="87hjY8qyOyO2kFxHjig5-65" value="" style="edgeStyle=orthogonalEdgeStyle;rounded=0;orthogonalLoop=1;jettySize=auto;html=1;" edge="1" parent="1" source="87hjY8qyOyO2kFxHjig5-56" target="87hjY8qyOyO2kFxHjig5-64">
          <mxGeometry relative="1" as="geometry" />
        </mxCell>
        <mxCell id="87hjY8qyOyO2kFxHjig5-66" value="nao" style="edgeLabel;html=1;align=center;verticalAlign=middle;resizable=0;points=[];" vertex="1" connectable="0" parent="87hjY8qyOyO2kFxHjig5-65">
          <mxGeometry x="-0.2319" y="2" relative="1" as="geometry">
            <mxPoint as="offset" />
          </mxGeometry>
        </mxCell>
        <mxCell id="87hjY8qyOyO2kFxHjig5-56" value="Cliente aprovou?" style="rhombus;whiteSpace=wrap;html=1;" vertex="1" parent="1">
          <mxGeometry x="380" y="1410" width="80" height="80" as="geometry" />
        </mxCell>
        <mxCell id="87hjY8qyOyO2kFxHjig5-74" value="" style="edgeStyle=orthogonalEdgeStyle;rounded=0;orthogonalLoop=1;jettySize=auto;html=1;" edge="1" parent="1" source="87hjY8qyOyO2kFxHjig5-60" target="87hjY8qyOyO2kFxHjig5-73">
          <mxGeometry relative="1" as="geometry" />
        </mxCell>
        <mxCell id="87hjY8qyOyO2kFxHjig5-77" style="edgeStyle=orthogonalEdgeStyle;rounded=0;orthogonalLoop=1;jettySize=auto;html=1;exitX=0.5;exitY=1;exitDx=0;exitDy=0;" edge="1" parent="1" source="87hjY8qyOyO2kFxHjig5-60" target="87hjY8qyOyO2kFxHjig5-75">
          <mxGeometry relative="1" as="geometry" />
        </mxCell>
        <mxCell id="87hjY8qyOyO2kFxHjig5-60" value="efetuar o pagamento" style="whiteSpace=wrap;html=1;" vertex="1" parent="1">
          <mxGeometry x="360" y="1580" width="120" height="60" as="geometry" />
        </mxCell>
        <mxCell id="87hjY8qyOyO2kFxHjig5-67" style="edgeStyle=orthogonalEdgeStyle;rounded=0;orthogonalLoop=1;jettySize=auto;html=1;exitX=0.5;exitY=0;exitDx=0;exitDy=0;entryX=1;entryY=0.5;entryDx=0;entryDy=0;" edge="1" parent="1" source="87hjY8qyOyO2kFxHjig5-64" target="87hjY8qyOyO2kFxHjig5-44">
          <mxGeometry relative="1" as="geometry" />
        </mxCell>
        <mxCell id="87hjY8qyOyO2kFxHjig5-68" value="nao" style="edgeLabel;html=1;align=center;verticalAlign=middle;resizable=0;points=[];" vertex="1" connectable="0" parent="87hjY8qyOyO2kFxHjig5-67">
          <mxGeometry x="-0.8219" y="-1" relative="1" as="geometry">
            <mxPoint as="offset" />
          </mxGeometry>
        </mxCell>
        <mxCell id="87hjY8qyOyO2kFxHjig5-72" value="" style="edgeStyle=orthogonalEdgeStyle;rounded=0;orthogonalLoop=1;jettySize=auto;html=1;" edge="1" parent="1" source="87hjY8qyOyO2kFxHjig5-64" target="87hjY8qyOyO2kFxHjig5-71">
          <mxGeometry relative="1" as="geometry" />
        </mxCell>
        <mxCell id="87hjY8qyOyO2kFxHjig5-64" value="cliente decidiu cancelar a comanda?" style="rhombus;whiteSpace=wrap;html=1;" vertex="1" parent="1">
          <mxGeometry x="540" y="1395" width="110" height="110" as="geometry" />
        </mxCell>
        <mxCell id="87hjY8qyOyO2kFxHjig5-87" style="edgeStyle=orthogonalEdgeStyle;rounded=0;orthogonalLoop=1;jettySize=auto;html=1;exitX=0.5;exitY=1;exitDx=0;exitDy=0;entryX=0.5;entryY=0;entryDx=0;entryDy=0;" edge="1" parent="1" source="87hjY8qyOyO2kFxHjig5-71" target="87hjY8qyOyO2kFxHjig5-85">
          <mxGeometry relative="1" as="geometry" />
        </mxCell>
        <mxCell id="87hjY8qyOyO2kFxHjig5-71" value="Garçom ou caixa cancelam a comanda" style="whiteSpace=wrap;html=1;" vertex="1" parent="1">
          <mxGeometry x="710" y="1420" width="120" height="60" as="geometry" />
        </mxCell>
        <mxCell id="87hjY8qyOyO2kFxHjig5-81" style="edgeStyle=orthogonalEdgeStyle;rounded=0;orthogonalLoop=1;jettySize=auto;html=1;exitX=0.5;exitY=1;exitDx=0;exitDy=0;" edge="1" parent="1" source="87hjY8qyOyO2kFxHjig5-73" target="87hjY8qyOyO2kFxHjig5-80">
          <mxGeometry relative="1" as="geometry" />
        </mxCell>
        <mxCell id="87hjY8qyOyO2kFxHjig5-73" value="caixa finaliza a comanda e pagamento" style="whiteSpace=wrap;html=1;" vertex="1" parent="1">
          <mxGeometry x="240" y="1720" width="120" height="60" as="geometry" />
        </mxCell>
        <mxCell id="87hjY8qyOyO2kFxHjig5-82" style="edgeStyle=orthogonalEdgeStyle;rounded=0;orthogonalLoop=1;jettySize=auto;html=1;exitX=0.5;exitY=1;exitDx=0;exitDy=0;" edge="1" parent="1" source="87hjY8qyOyO2kFxHjig5-75" target="87hjY8qyOyO2kFxHjig5-80">
          <mxGeometry relative="1" as="geometry" />
        </mxCell>
        <mxCell id="87hjY8qyOyO2kFxHjig5-75" value="garçon finaliza comanda e o pagamento" style="whiteSpace=wrap;html=1;" vertex="1" parent="1">
          <mxGeometry x="475" y="1720" width="120" height="60" as="geometry" />
        </mxCell>
        <mxCell id="87hjY8qyOyO2kFxHjig5-80" value="" style="ellipse;html=1;shape=endState;fillColor=#000000;strokeColor=#ff0000;" vertex="1" parent="1">
          <mxGeometry x="395" y="1880" width="30" height="30" as="geometry" />
        </mxCell>
        <mxCell id="87hjY8qyOyO2kFxHjig5-83" value="Fim" style="text;align=center;fontStyle=1;verticalAlign=middle;spacingLeft=3;spacingRight=3;strokeColor=none;rotatable=0;points=[[0,0.5],[1,0.5]];portConstraint=eastwest;" vertex="1" parent="1">
          <mxGeometry x="370" y="1920" width="80" height="26" as="geometry" />
        </mxCell>
        <mxCell id="87hjY8qyOyO2kFxHjig5-85" value="" style="ellipse;html=1;shape=endState;fillColor=#000000;strokeColor=#ff0000;" vertex="1" parent="1">
          <mxGeometry x="755" y="1540" width="30" height="30" as="geometry" />
        </mxCell>
        <mxCell id="87hjY8qyOyO2kFxHjig5-86" value="Fim" style="text;align=center;fontStyle=1;verticalAlign=middle;spacingLeft=3;spacingRight=3;strokeColor=none;rotatable=0;points=[[0,0.5],[1,0.5]];portConstraint=eastwest;" vertex="1" parent="1">
          <mxGeometry x="730" y="1580" width="80" height="26" as="geometry" />
        </mxCell>
      </root>
    </mxGraphModel>
  </diagram>
</mxfile>
